<svg viewBox="0 0 512 512" xmlns="http://www.w3.org/2000/svg" role="img" aria-label="美猴王">
  <defs>
    <linearGradient id="bg" x1="0" y1="0" x2="0" y2="1">
      <stop offset="0" stop-color="#FFD45C"/><stop offset="1" stop-color="#F5A524"/>
    </linearGradient>
  </defs>
  <rect width="512" height="512" rx="104" fill="url(#bg)"/>
  <g stroke="#9A3B12" stroke-width="6" stroke-linejoin="round">
    <path d="M232 150 C 200 78, 168 60, 150 78 C 176 92, 188 120, 226 168 Z" fill="#E8893B"/>
    <path d="M280 150 C 312 78, 344 60, 362 78 C 336 92, 324 120, 286 168 Z" fill="#E8893B"/>
  </g>
  <circle cx="132" cy="304" r="48" fill="#7A5230"/><circle cx="132" cy="304" r="26" fill="#F2C18A"/>
  <circle cx="380" cy="304" r="48" fill="#7A5230"/><circle cx="380" cy="304" r="26" fill="#F2C18A"/>
  <path d="M256 150 C 360 150, 396 244, 396 306 C 396 388, 332 438, 256 438 C 180 438, 116 388, 116 306 C 116 244, 152 150, 256 150 Z" fill="#7A5230"/>
  <path d="M256 190 C 346 190, 368 262, 368 312 C 368 380, 322 416, 256 416 C 190 416, 144 380, 144 312 C 144 262, 166 190, 256 190 Z" fill="#F4C594"/>
  <path d="M150 258 C 176 214, 336 214, 362 258 C 360 226, 326 182, 256 182 C 186 182, 152 226, 150 258 Z" fill="#E0524D"/>
  <path d="M148 262 C 200 240, 312 240, 364 262 L 364 286 C 312 264, 200 264, 148 286 Z" fill="#F7C948" stroke="#C9931E" stroke-width="5"/>
  <path d="M244 252 q12 -22 24 0" fill="none" stroke="#C9931E" stroke-width="9" stroke-linecap="round"/>
  <path d="M182 296 L 244 306" stroke="#6B4A2B" stroke-width="11" stroke-linecap="round"/>
  <path d="M330 296 L 268 306" stroke="#6B4A2B" stroke-width="11" stroke-linecap="round"/>
  <ellipse cx="214" cy="324" rx="30" ry="34" fill="#FFFFFF"/><ellipse cx="298" cy="324" rx="30" ry="34" fill="#FFFFFF"/>
  <circle cx="222" cy="328" r="14" fill="#2A2A2A"/><circle cx="306" cy="328" r="14" fill="#2A2A2A"/>
  <ellipse cx="256" cy="362" rx="15" ry="9" fill="#C97F5A"/>
  <path d="M224 384 q32 28 64 0" fill="none" stroke="#9E3A36" stroke-width="9" stroke-linecap="round"/>
</svg>
